<?xml version="1.0" encoding="UTF-8" standalone="no"?><!DOCTYPE svg PUBLIC "-//W3C//DTD SVG 1.1//EN" "http://www.w3.org/Graphics/SVG/1.1/DTD/svg11.dtd"><svg width="100%" height="100%" viewBox="0 0 235 452" version="1.1" xmlns="http://www.w3.org/2000/svg" xmlns:xlink="http://www.w3.org/1999/xlink" xml:space="preserve" xmlns:serif="http://www.serif.com/" style="fill-rule:evenodd;clip-rule:evenodd;stroke-linecap:round;stroke-linejoin:round;stroke-miterlimit:1.5;"><path d="M40.82,122.968l28.157,133.98m109.536,0l24.754,-133.98m-24.754,133.98l-109.536,0" style="fill:none;stroke:#231f20;stroke-width:19.18px;"/><path d="M77.977,113.253l99.536,-0" style="fill:none;stroke:#231f20;stroke-width:19.18px;"/><path d="M93.314,86.519l99.537,-0" style="fill:none;stroke:#231f20;stroke-width:19.18px;"/><path d="M123.745,60.775l86.681,-0" style="fill:none;stroke:#231f20;stroke-width:19.18px;"/><path d="M155.925,34.783l69.356,0" style="fill:none;stroke:#231f20;stroke-width:19.18px;"/><path d="M156.748,9.588l44.103,-0" style="fill:none;stroke:#231f20;stroke-width:19.18px;"/><g><path d="M15.096,310.351l0,39.393c0,0.949 0.278,1.796 0.834,2.542c0.556,0.745 1.336,1.117 2.34,1.117c1.356,0 2.407,-0.834 3.153,-2.502c0.746,-1.668 1.119,-3.832 1.119,-6.49l-0.04,-1.14c-0,-1.437 0.264,-2.292 0.793,-2.563c0.529,-0.271 1.431,-0.407 2.706,-0.407c1.112,0 1.872,0.204 2.279,0.61c0.407,0.407 0.61,1.262 0.61,2.564c-0,4.205 -1.099,7.86 -3.296,10.966c-2.197,3.106 -5.317,4.659 -9.359,4.659c-4.747,-0 -8.64,-2.386 -11.678,-7.156c-3.038,-4.771 -4.557,-11.535 -4.557,-20.29c0,-6.56 0.773,-12.015 2.319,-16.366c1.547,-4.351 3.425,-7.59 5.636,-9.718c2.211,-2.128 4.971,-3.192 8.28,-3.192c3.934,-0 7.047,1.309 9.339,3.927c2.292,2.617 3.438,5.649 3.438,9.094c0,1.79 -0.38,3.309 -1.139,4.557c-0.76,1.248 -1.913,1.872 -3.459,1.872c-1.6,-0 -2.828,-0.597 -3.682,-1.791c-0.855,-1.193 -1.282,-2.685 -1.282,-4.475c-0,-0.76 0.081,-1.642 0.244,-2.645c0.217,-1.167 0.326,-2.089 0.326,-2.767c-0,-0.706 -0.258,-1.302 -0.774,-1.791c-0.515,-0.488 -1.112,-0.732 -1.79,-0.732c-0.651,-0 -1.207,0.285 -1.668,0.854c-0.461,0.569 -0.692,1.192 -0.692,1.87Z" style="fill:#231f20;fill-rule:nonzero;"/><path d="M49.927,302.378c5.1,-0 9.358,2.285 12.776,6.856c3.418,4.571 5.127,11.36 5.127,20.366c0,9.711 -1.736,17.056 -5.208,22.033c-3.472,4.978 -7.799,7.467 -12.98,7.467c-3.581,-0 -6.687,-1.139 -9.318,-3.418c-2.631,-2.279 -4.659,-5.317 -6.083,-9.115c-1.424,-3.797 -2.137,-8.992 -2.137,-15.584c0,-9.413 1.635,-16.534 4.904,-21.362c3.268,-4.829 7.575,-7.243 12.919,-7.243Zm2.929,10.213c0,-3.364 -0.976,-5.045 -2.929,-5.045c-2.116,-0 -3.174,2.061 -3.174,6.184l-0,33.814c-0,4.096 0.963,6.144 2.889,6.144c2.143,0 3.214,-2.048 3.214,-6.144l0,-34.953Z" style="fill:#231f20;fill-rule:nonzero;"/><path d="M74.422,302.948l0,-2.605c0,-2.468 0.882,-4.577 2.645,-6.327c1.763,-1.75 4.3,-2.624 7.609,-2.624c4.476,-0 6.714,1.559 6.714,4.679c-0,1.519 -0.42,2.591 -1.261,3.214c-0.841,0.624 -1.655,0.936 -2.442,0.936c-0.868,0 -1.939,-0.407 -3.214,-1.22c-1.248,-0.76 -2.143,-1.14 -2.686,-1.14c-0.624,0 -1.139,0.251 -1.546,0.753c-0.407,0.502 -0.61,1.024 -0.61,1.567c-0,0.759 0.298,1.41 0.895,1.953c0.597,0.542 1.166,0.814 1.709,0.814l6.917,-0c0.922,-0 1.383,0.461 1.383,1.383l0,2.401c0,0.732 -0.311,1.275 -0.935,1.627c-1.113,0.651 -1.669,1.831 -1.669,3.54l0,39.877c0,0.569 0.461,1.098 1.384,1.587c0.434,0.244 0.692,0.495 0.773,0.752c0.081,0.258 0.122,0.821 0.122,1.689c-0,1.302 -0.034,2.082 -0.102,2.34c-0.068,0.257 -0.386,0.386 -0.956,0.386l-16.073,0c-0.705,0 -1.058,-0.366 -1.058,-1.098l0,-2.727c0,-0.786 0.326,-1.302 0.977,-1.546c0.949,-0.352 1.424,-1.315 1.424,-2.889l0,-39.144c0,-1.031 -0.488,-1.899 -1.465,-2.604c-0.624,-0.434 -0.936,-1.031 -0.936,-1.79l0,-2.401c0,-0.922 0.353,-1.383 1.058,-1.383l1.343,-0Z" style="fill:#231f20;fill-rule:nonzero;"/><path d="M97.005,302.948l0,-2.605c0,-2.468 0.882,-4.577 2.645,-6.327c1.763,-1.75 4.3,-2.624 7.609,-2.624c4.476,-0 6.714,1.559 6.714,4.679c-0,1.519 -0.42,2.591 -1.261,3.214c-0.841,0.624 -1.655,0.936 -2.442,0.936c-0.868,0 -1.939,-0.407 -3.214,-1.22c-1.248,-0.76 -2.143,-1.14 -2.686,-1.14c-0.624,0 -1.139,0.251 -1.546,0.753c-0.407,0.502 -0.61,1.024 -0.61,1.567c-0,0.759 0.298,1.41 0.895,1.953c0.597,0.542 1.166,0.814 1.709,0.814l6.917,-0c0.922,-0 1.383,0.461 1.383,1.383l0,2.401c0,0.732 -0.311,1.275 -0.935,1.627c-1.113,0.651 -1.669,1.831 -1.669,3.54l0,39.877c0,0.569 0.461,1.098 1.384,1.587c0.434,0.244 0.692,0.495 0.773,0.752c0.081,0.258 0.122,0.821 0.122,1.689c-0,1.302 -0.034,2.082 -0.102,2.34c-0.068,0.257 -0.386,0.386 -0.956,0.386l-16.073,0c-0.705,0 -1.058,-0.366 -1.058,-1.098l0,-2.727c0,-0.786 0.326,-1.302 0.977,-1.546c0.949,-0.352 1.424,-1.315 1.424,-2.889l0,-39.144c0,-1.031 -0.488,-1.899 -1.465,-2.604c-0.624,-0.434 -0.936,-1.031 -0.936,-1.79l0,-2.401c0,-0.922 0.353,-1.383 1.058,-1.383l1.343,-0Z" style="fill:#231f20;fill-rule:nonzero;"/><path d="M132.202,329.925l0,16.642c0,2.198 0.427,3.92 1.282,5.168c0.854,1.248 1.946,1.872 3.275,1.872c2.062,-0 3.71,-0.875 4.944,-2.625c1.235,-1.749 1.892,-4.143 1.974,-7.182c0.027,-1.627 0.183,-2.604 0.468,-2.929c0.285,-0.326 1.268,-0.489 2.95,-0.489c1.465,0 2.394,0.15 2.787,0.448c0.393,0.298 0.59,1.044 0.59,2.238c0,4.178 -1.356,7.894 -4.069,11.149c-2.713,3.255 -6.307,4.883 -10.783,4.883c-5.127,-0 -9.481,-2.326 -13.061,-6.978c-3.581,-4.653 -5.372,-11.658 -5.372,-21.017c0,-9.359 1.655,-16.486 4.965,-21.382c3.309,-4.897 7.649,-7.345 13.021,-7.345c4.611,-0 8.314,2.062 11.108,6.185c2.794,4.123 4.191,9.982 4.191,17.578l0,3.784l-18.27,0Zm5.493,-5.086l0,-13.469c0,-2.549 -0.908,-3.824 -2.726,-3.824c-1.845,-0 -2.767,1.275 -2.767,3.824l0,13.469l5.493,-0Z" style="fill:#231f20;fill-rule:nonzero;"/><path d="M169.515,329.925l-0,16.642c-0,2.198 0.427,3.92 1.282,5.168c0.854,1.248 1.946,1.872 3.275,1.872c2.062,-0 3.71,-0.875 4.944,-2.625c1.234,-1.749 1.892,-4.143 1.974,-7.182c0.027,-1.627 0.183,-2.604 0.468,-2.929c0.284,-0.326 1.268,-0.489 2.95,-0.489c1.464,0 2.393,0.15 2.787,0.448c0.393,0.298 0.59,1.044 0.59,2.238c-0,4.178 -1.357,7.894 -4.069,11.149c-2.713,3.255 -6.307,4.883 -10.783,4.883c-5.127,-0 -9.481,-2.326 -13.062,-6.978c-3.58,-4.653 -5.371,-11.658 -5.371,-21.017c0,-9.359 1.655,-16.486 4.965,-21.382c3.309,-4.897 7.649,-7.345 13.02,-7.345c4.612,-0 8.315,2.062 11.109,6.185c2.794,4.123 4.191,9.982 4.191,17.578l-0,3.784l-18.27,0Zm5.493,-5.086l0,-13.469c0,-2.549 -0.909,-3.824 -2.726,-3.824c-1.845,-0 -2.767,1.275 -2.767,3.824l-0,13.469l5.493,-0Z" style="fill:#231f20;fill-rule:nonzero;"/><path d="M15.096,393.684l0,39.394c0,0.948 0.278,1.795 0.834,2.541c0.556,0.745 1.336,1.118 2.34,1.118c1.356,-0 2.407,-0.834 3.153,-2.503c0.746,-1.668 1.119,-3.831 1.119,-6.49l-0.04,-1.139c-0,-1.438 0.264,-2.292 0.793,-2.564c0.529,-0.271 1.431,-0.407 2.706,-0.407c1.112,0 1.872,0.204 2.279,0.611c0.407,0.407 0.61,1.261 0.61,2.563c-0,4.205 -1.099,7.86 -3.296,10.966c-2.197,3.106 -5.317,4.659 -9.359,4.659c-4.747,0 -8.64,-2.385 -11.678,-7.156c-3.038,-4.771 -4.557,-11.534 -4.557,-20.29c0,-6.56 0.773,-12.015 2.319,-16.366c1.547,-4.35 3.425,-7.59 5.636,-9.717c2.211,-2.129 4.971,-3.193 8.28,-3.193c3.934,0 7.047,1.309 9.339,3.927c2.292,2.618 3.438,5.649 3.438,9.094c0,1.79 -0.38,3.31 -1.139,4.557c-0.76,1.248 -1.913,1.872 -3.459,1.872c-1.6,0 -2.828,-0.597 -3.682,-1.79c-0.855,-1.194 -1.282,-2.686 -1.282,-4.476c-0,-0.76 0.081,-1.641 0.244,-2.645c0.217,-1.166 0.326,-2.089 0.326,-2.767c-0,-0.705 -0.258,-1.302 -0.774,-1.79c-0.515,-0.489 -1.112,-0.733 -1.79,-0.733c-0.651,0 -1.207,0.285 -1.668,0.854c-0.461,0.569 -0.692,1.193 -0.692,1.87Z" style="fill:#231f20;fill-rule:nonzero;"/><path d="M33.895,392.507c-0.353,-0.163 -0.624,-0.285 -0.814,-0.367c-0.678,-0.298 -1.105,-0.59 -1.282,-0.875c-0.176,-0.284 -0.264,-0.874 -0.264,-1.77c-0,-0.488 -0.014,-0.895 -0.041,-1.22c0,-0.814 0.115,-1.35 0.346,-1.608c0.231,-0.257 0.739,-0.386 1.526,-0.386l12.655,-0c0.623,-0 1.003,0.095 1.139,0.285c0.135,0.19 0.203,0.651 0.203,1.383l0,40.08c0,3.499 0.963,5.249 2.889,5.249c1.465,0 2.577,-0.624 3.337,-1.872l-0,-37.638c-0,-0.977 -0.475,-1.736 -1.424,-2.279c-0.461,-0.271 -0.739,-0.563 -0.834,-0.875c-0.095,-0.312 -0.143,-1.363 -0.143,-3.153c0,-0.787 0.461,-1.18 1.384,-1.18l13.305,-0c0.57,-0 0.916,0.081 1.038,0.244c0.122,0.163 0.183,0.597 0.183,1.302l-0,46.631c-0,0.895 0.366,1.519 1.099,1.872c0.895,0.488 1.342,1.302 1.342,2.441c0,1.628 -0.061,2.55 -0.183,2.767c-0.122,0.217 -0.549,0.326 -1.281,0.326l-12.37,-0c-0.787,-0 -1.329,-0.143 -1.628,-0.428c-0.298,-0.284 -0.447,-0.902 -0.447,-1.851l-0,-1.017c-0,-1.085 -0.014,-1.696 -0.041,-1.831c-4.313,3.797 -7.962,5.696 -10.946,5.696c-2.577,0 -4.679,-0.854 -6.307,-2.563c-1.627,-1.709 -2.441,-5.005 -2.441,-9.888l-0,-37.475Z" style="fill:#231f20;fill-rule:nonzero;"/><path d="M88.379,390.269c1.6,-1.52 3.065,-2.659 4.394,-3.418c1.33,-0.76 2.903,-1.14 4.72,-1.14c4.178,0 7.237,2.164 9.176,6.49c1.94,4.327 2.909,11.251 2.909,20.773c0,6.185 -0.312,11.271 -0.935,15.258c-0.624,3.988 -2.021,7.257 -4.192,9.807c-2.17,2.55 -4.665,3.825 -7.486,3.825c-3.391,-0 -6.253,-1.872 -8.586,-5.616l-0,9.074c-0,0.923 0.515,1.56 1.546,1.913c1.004,0.352 1.506,1.017 1.506,1.994l-0,1.464c-0,0.57 -0.068,0.916 -0.204,1.038c-0.135,0.122 -0.502,0.183 -1.098,0.183l-15.666,0c-1.085,0 -1.628,-0.271 -1.628,-0.814l0,-1.505c0,-1.004 0.461,-1.777 1.384,-2.32c0.461,-0.271 0.691,-0.705 0.691,-1.302l0,-52.653c0,-1.003 -0.352,-1.763 -1.057,-2.278c-0.489,-0.353 -0.78,-0.624 -0.875,-0.814c-0.095,-0.19 -0.143,-0.583 -0.143,-1.18l0,-1.262c0,-0.732 0.075,-1.166 0.224,-1.302c0.149,-0.135 0.549,-0.203 1.2,-0.203l12.411,-0c0.787,-0 1.268,0.095 1.444,0.285c0.177,0.19 0.265,0.678 0.265,1.465l-0,2.238Zm6.266,7.69c0,-1.682 -0.339,-2.936 -1.017,-3.764c-0.678,-0.827 -1.424,-1.241 -2.238,-1.241c-0.597,0 -1.248,0.353 -1.953,1.058c-0.705,0.705 -1.058,1.506 -1.058,2.401l-0,34.179c-0,0.733 0.38,1.506 1.139,2.32c0.76,0.814 1.641,1.22 2.645,1.22c1.655,0 2.482,-1.288 2.482,-3.865l0,-32.308Z" style="fill:#231f20;fill-rule:nonzero;"/><path d="M134.888,387.217l2.238,11.271c0.054,0.353 0.081,0.665 0.081,0.936c0,0.759 -0.732,1.139 -2.197,1.139c-0.977,0 -1.689,-0.122 -2.136,-0.366c-0.448,-0.244 -0.957,-0.895 -1.526,-1.953c-0.651,-1.248 -1.642,-2.726 -2.971,-4.435c-1.329,-1.709 -2.523,-2.564 -3.58,-2.564c-0.407,0 -0.767,0.19 -1.079,0.57c-0.312,0.379 -0.468,0.826 -0.468,1.341c0,1.382 1.981,5.299 5.941,11.75c3.418,5.611 5.737,10.015 6.958,13.214c1.221,3.198 1.831,6.803 1.831,10.815c0,4.255 -0.922,7.569 -2.767,9.941c-1.844,2.372 -4.015,3.557 -6.51,3.557c-1.574,0 -3.228,-0.569 -4.964,-1.709c-0.95,-0.624 -1.587,-0.936 -1.913,-0.936c-0.38,0 -0.597,0.312 -0.651,0.936c-0.108,0.733 -0.271,1.201 -0.488,1.404c-0.217,0.204 -0.922,0.305 -2.116,0.305c-0.922,0 -1.519,-0.135 -1.79,-0.407c-0.272,-0.271 -0.462,-0.746 -0.57,-1.424l-2.035,-11.352c-0.081,-0.543 -0.122,-0.882 -0.122,-1.018c0,-0.759 0.909,-1.139 2.727,-1.139c0.949,0 1.607,0.122 1.973,0.366c0.366,0.244 0.834,0.95 1.404,2.116c2.116,4.422 4.123,6.633 6.022,6.633c1.221,-0 1.831,-0.732 1.831,-2.196c0,-1.301 -0.454,-2.914 -1.363,-4.838c-0.909,-1.924 -2.679,-5.082 -5.31,-9.473c-2.767,-4.662 -4.768,-8.565 -6.002,-11.709c-1.234,-3.145 -1.851,-6.302 -1.851,-9.474c-0,-4.309 0.922,-7.521 2.767,-9.635c1.844,-2.115 4.082,-3.172 6.713,-3.172c1.384,0 2.957,0.475 4.721,1.424c0.895,0.489 1.505,0.733 1.831,0.733c0.434,-0 0.691,-0.285 0.773,-0.855c0.108,-0.596 0.325,-0.963 0.651,-1.098c0.325,-0.136 1.017,-0.204 2.075,-0.204c0.678,0 1.119,0.075 1.322,0.224c0.204,0.149 0.387,0.577 0.55,1.282Z" style="fill:#231f20;fill-rule:nonzero;"/></g></svg>