<?xml version="1.0" encoding="UTF-8" standalone="no"?><!DOCTYPE svg PUBLIC "-//W3C//DTD SVG 1.1//EN" "http://www.w3.org/Graphics/SVG/1.1/DTD/svg11.dtd"><svg width="100%" height="100%" viewBox="0 0 472 538" version="1.1" xmlns="http://www.w3.org/2000/svg" xmlns:xlink="http://www.w3.org/1999/xlink" xml:space="preserve" xmlns:serif="http://www.serif.com/" style="fill-rule:evenodd;clip-rule:evenodd;stroke-linecap:round;stroke-linejoin:round;stroke-miterlimit:1.5;"><path d="M148.768,155.517l28.158,133.981m109.535,-0l24.754,-133.981m-24.754,133.981l-109.535,-0" style="fill:none;stroke:#231f20;stroke-width:19.18px;"/><path d="M185.925,145.802l99.536,0" style="fill:none;stroke:#231f20;stroke-width:19.18px;"/><path d="M201.262,119.068l99.537,-0" style="fill:none;stroke:#231f20;stroke-width:19.18px;"/><path d="M231.694,93.324l86.68,-0" style="fill:none;stroke:#231f20;stroke-width:19.18px;"/><path d="M263.873,67.332l69.357,0" style="fill:none;stroke:#231f20;stroke-width:19.18px;"/><path d="M264.696,42.137l44.103,0" style="fill:none;stroke:#231f20;stroke-width:19.18px;"/><path d="M123.044,342.9l0,39.394c0,0.948 0.278,1.795 0.835,2.541c0.556,0.745 1.336,1.118 2.339,1.118c1.357,-0 2.408,-0.835 3.154,-2.503c0.746,-1.668 1.119,-3.832 1.119,-6.49l-0.041,-1.139c-0,-1.438 0.264,-2.292 0.793,-2.564c0.529,-0.271 1.431,-0.407 2.706,-0.407c1.113,0 1.872,0.204 2.279,0.611c0.407,0.407 0.61,1.261 0.61,2.563c0,4.205 -1.098,7.86 -3.296,10.966c-2.197,3.106 -5.316,4.659 -9.358,4.659c-4.747,0 -8.64,-2.385 -11.678,-7.156c-3.039,-4.771 -4.558,-11.534 -4.558,-20.29c0,-6.56 0.773,-12.015 2.32,-16.366c1.546,-4.35 3.424,-7.59 5.635,-9.718c2.211,-2.128 4.971,-3.192 8.281,-3.192c3.933,0 7.046,1.309 9.338,3.927c2.292,2.618 3.438,5.649 3.438,9.094c0,1.79 -0.379,3.309 -1.139,4.557c-0.759,1.248 -1.912,1.872 -3.459,1.872c-1.6,0 -2.828,-0.597 -3.682,-1.79c-0.855,-1.194 -1.282,-2.686 -1.282,-4.476c0,-0.76 0.082,-1.641 0.244,-2.645c0.217,-1.167 0.326,-2.089 0.326,-2.767c-0,-0.705 -0.258,-1.302 -0.773,-1.79c-0.516,-0.489 -1.112,-0.733 -1.791,-0.733c-0.651,0 -1.207,0.285 -1.668,0.854c-0.461,0.569 -0.692,1.193 -0.692,1.87Z" style="fill:#231f20;fill-rule:nonzero;"/><path d="M157.875,334.927c5.1,0 9.359,2.286 12.777,6.856c3.418,4.571 5.127,11.36 5.127,20.366c-0,9.711 -1.736,17.056 -5.209,22.034c-3.472,4.977 -7.799,7.466 -12.98,7.466c-3.58,0 -6.686,-1.139 -9.318,-3.418c-2.631,-2.278 -4.659,-5.317 -6.083,-9.114c-1.424,-3.798 -2.136,-8.993 -2.136,-15.585c-0,-9.413 1.634,-16.533 4.903,-21.362c3.269,-4.829 7.575,-7.243 12.919,-7.243Zm2.93,10.213c-0,-3.363 -0.977,-5.045 -2.93,-5.045c-2.116,-0 -3.174,2.061 -3.174,6.185l0,33.813c0,4.096 0.963,6.144 2.889,6.144c2.143,0 3.215,-2.048 3.215,-6.144l-0,-34.953Z" style="fill:#231f20;fill-rule:nonzero;"/><path d="M182.371,335.497l-0,-2.604c-0,-2.469 0.881,-4.578 2.644,-6.328c1.764,-1.749 4.3,-2.624 7.609,-2.624c4.476,-0 6.714,1.56 6.714,4.679c0,1.519 -0.42,2.591 -1.261,3.215c-0.841,0.624 -1.655,0.936 -2.441,0.936c-0.869,-0 -1.94,-0.407 -3.215,-1.221c-1.248,-0.76 -2.143,-1.139 -2.686,-1.139c-0.623,-0 -1.139,0.251 -1.546,0.752c-0.407,0.502 -0.61,1.024 -0.61,1.567c-0,0.759 0.298,1.411 0.895,1.953c0.597,0.543 1.167,0.814 1.709,0.814l6.917,-0c0.923,-0 1.384,0.461 1.384,1.383l-0,2.401c-0,0.732 -0.312,1.275 -0.936,1.628c-1.112,0.651 -1.668,1.831 -1.668,3.54l-0,39.876c-0,0.57 0.461,1.099 1.383,1.587c0.434,0.244 0.692,0.495 0.773,0.753c0.082,0.257 0.122,0.82 0.122,1.688c0,1.302 -0.034,2.082 -0.101,2.34c-0.068,0.258 -0.387,0.387 -0.957,0.387l-16.072,-0c-0.706,-0 -1.058,-0.367 -1.058,-1.099l-0,-2.726c-0,-0.787 0.325,-1.302 0.976,-1.547c0.95,-0.352 1.425,-1.315 1.425,-2.889l-0,-39.143c-0,-1.031 -0.489,-1.899 -1.465,-2.605c-0.624,-0.434 -0.936,-1.03 -0.936,-1.79l-0,-2.401c-0,-0.922 0.352,-1.383 1.058,-1.383l1.343,-0Z" style="fill:#231f20;fill-rule:nonzero;"/><path d="M204.954,335.497l-0,-2.604c-0,-2.469 0.881,-4.578 2.644,-6.328c1.764,-1.749 4.3,-2.624 7.609,-2.624c4.476,-0 6.714,1.56 6.714,4.679c0,1.519 -0.42,2.591 -1.261,3.215c-0.841,0.624 -1.655,0.936 -2.441,0.936c-0.869,-0 -1.94,-0.407 -3.215,-1.221c-1.248,-0.76 -2.143,-1.139 -2.686,-1.139c-0.623,-0 -1.139,0.251 -1.546,0.752c-0.407,0.502 -0.61,1.024 -0.61,1.567c-0,0.759 0.298,1.411 0.895,1.953c0.597,0.543 1.167,0.814 1.709,0.814l6.917,-0c0.923,-0 1.384,0.461 1.384,1.383l-0,2.401c-0,0.732 -0.312,1.275 -0.936,1.628c-1.112,0.651 -1.668,1.831 -1.668,3.54l-0,39.876c-0,0.57 0.461,1.099 1.383,1.587c0.434,0.244 0.692,0.495 0.773,0.753c0.082,0.257 0.122,0.82 0.122,1.688c0,1.302 -0.034,2.082 -0.101,2.34c-0.068,0.258 -0.387,0.387 -0.957,0.387l-16.072,-0c-0.706,-0 -1.058,-0.367 -1.058,-1.099l-0,-2.726c-0,-0.787 0.325,-1.302 0.976,-1.547c0.95,-0.352 1.425,-1.315 1.425,-2.889l-0,-39.143c-0,-1.031 -0.489,-1.899 -1.465,-2.605c-0.624,-0.434 -0.936,-1.03 -0.936,-1.79l-0,-2.401c-0,-0.922 0.352,-1.383 1.058,-1.383l1.343,-0Z" style="fill:#231f20;fill-rule:nonzero;"/><path d="M240.15,362.474l0,16.643c0,2.197 0.428,3.919 1.282,5.167c0.855,1.248 1.947,1.872 3.276,1.872c2.061,0 3.709,-0.875 4.944,-2.624c1.234,-1.75 1.892,-4.144 1.973,-7.182c0.027,-1.628 0.183,-2.604 0.468,-2.93c0.285,-0.325 1.268,-0.488 2.95,-0.488c1.465,-0 2.394,0.149 2.787,0.447c0.394,0.299 0.59,1.045 0.59,2.238c0,4.178 -1.356,7.894 -4.069,11.149c-2.712,3.256 -6.307,4.883 -10.783,4.883c-5.126,0 -9.48,-2.326 -13.061,-6.978c-3.581,-4.652 -5.371,-11.658 -5.371,-21.017c-0,-9.358 1.655,-16.486 4.964,-21.382c3.31,-4.897 7.65,-7.345 13.021,-7.345c4.611,0 8.314,2.062 11.108,6.185c2.794,4.123 4.191,9.983 4.191,17.578l0,3.784l-18.27,0Zm5.494,-5.086l-0,-13.468c-0,-2.55 -0.909,-3.825 -2.727,-3.825c-1.844,-0 -2.767,1.275 -2.767,3.825l0,13.468l5.494,0Z" style="fill:#231f20;fill-rule:nonzero;"/><path d="M277.463,362.474l0,16.643c0,2.197 0.428,3.919 1.282,5.167c0.855,1.248 1.946,1.872 3.276,1.872c2.061,0 3.709,-0.875 4.943,-2.624c1.235,-1.75 1.893,-4.144 1.974,-7.182c0.027,-1.628 0.183,-2.604 0.468,-2.93c0.285,-0.325 1.268,-0.488 2.95,-0.488c1.465,-0 2.394,0.149 2.787,0.447c0.394,0.299 0.59,1.045 0.59,2.238c0,4.178 -1.356,7.894 -4.069,11.149c-2.713,3.256 -6.307,4.883 -10.783,4.883c-5.127,0 -9.481,-2.326 -13.061,-6.978c-3.581,-4.652 -5.371,-11.658 -5.371,-21.017c-0,-9.358 1.654,-16.486 4.964,-21.382c3.309,-4.897 7.65,-7.345 13.021,-7.345c4.611,0 8.314,2.062 11.108,6.185c2.794,4.123 4.191,9.983 4.191,17.578l0,3.784l-18.27,0Zm5.493,-5.086l0,-13.468c0,-2.55 -0.908,-3.825 -2.726,-3.825c-1.844,-0 -2.767,1.275 -2.767,3.825l0,13.468l5.493,0Z" style="fill:#231f20;fill-rule:nonzero;"/><path d="M123.044,426.233l0,39.394c0,0.949 0.278,1.796 0.835,2.541c0.556,0.745 1.336,1.118 2.339,1.118c1.357,-0 2.408,-0.834 3.154,-2.503c0.746,-1.668 1.119,-3.831 1.119,-6.49l-0.041,-1.139c-0,-1.438 0.264,-2.292 0.793,-2.563c0.529,-0.272 1.431,-0.407 2.706,-0.407c1.113,-0 1.872,0.203 2.279,0.61c0.407,0.407 0.61,1.261 0.61,2.564c0,4.204 -1.098,7.86 -3.296,10.966c-2.197,3.106 -5.316,4.659 -9.358,4.659c-4.747,-0 -8.64,-2.386 -11.678,-7.157c-3.039,-4.771 -4.558,-11.534 -4.558,-20.29c0,-6.56 0.773,-12.015 2.32,-16.365c1.546,-4.351 3.424,-7.59 5.635,-9.718c2.211,-2.128 4.971,-3.192 8.281,-3.192c3.933,-0 7.046,1.308 9.338,3.926c2.292,2.618 3.438,5.649 3.438,9.094c0,1.791 -0.379,3.31 -1.139,4.558c-0.759,1.247 -1.912,1.871 -3.459,1.871c-1.6,0 -2.828,-0.596 -3.682,-1.79c-0.855,-1.194 -1.282,-2.686 -1.282,-4.476c0,-0.759 0.082,-1.641 0.244,-2.645c0.217,-1.166 0.326,-2.088 0.326,-2.767c-0,-0.705 -0.258,-1.302 -0.773,-1.79c-0.516,-0.488 -1.112,-0.732 -1.791,-0.732c-0.651,-0 -1.207,0.284 -1.668,0.853c-0.461,0.57 -0.692,1.193 -0.692,1.87Z" style="fill:#231f20;fill-rule:nonzero;"/><path d="M141.843,425.056c-0.352,-0.163 -0.624,-0.285 -0.814,-0.366c-0.678,-0.299 -1.105,-0.59 -1.281,-0.875c-0.177,-0.285 -0.265,-0.875 -0.265,-1.77c0,-0.489 -0.013,-0.895 -0.041,-1.221c0,-0.814 0.116,-1.35 0.346,-1.607c0.231,-0.258 0.74,-0.387 1.526,-0.387l12.655,0c0.624,0 1.004,0.095 1.139,0.285c0.136,0.19 0.204,0.651 0.204,1.383l-0,40.08c-0,3.5 0.963,5.249 2.889,5.249c1.464,0 2.577,-0.624 3.336,-1.871l0,-37.639c0,-0.976 -0.475,-1.736 -1.424,-2.278c-0.461,-0.272 -0.739,-0.563 -0.834,-0.875c-0.095,-0.312 -0.143,-1.363 -0.143,-3.154c0,-0.786 0.462,-1.18 1.384,-1.18l13.306,0c0.569,0 0.915,0.082 1.037,0.244c0.122,0.163 0.183,0.597 0.183,1.302l0,46.631c0,0.895 0.367,1.519 1.099,1.872c0.895,0.488 1.343,1.302 1.343,2.441c-0,1.628 -0.061,2.55 -0.183,2.767c-0.122,0.217 -0.55,0.326 -1.282,0.326l-12.37,-0c-0.787,-0 -1.329,-0.143 -1.628,-0.427c-0.298,-0.285 -0.447,-0.902 -0.447,-1.852l-0,-1.017c-0,-1.085 -0.014,-1.695 -0.041,-1.831c-4.313,3.798 -7.961,5.697 -10.945,5.697c-2.577,-0 -4.68,-0.855 -6.307,-2.564c-1.628,-1.709 -2.442,-5.005 -2.442,-9.888l0,-37.475Z" style="fill:#231f20;fill-rule:nonzero;"/><path d="M196.327,422.818c1.601,-1.519 3.066,-2.659 4.395,-3.418c1.329,-0.76 2.902,-1.139 4.72,-1.139c4.177,-0 7.236,2.163 9.175,6.49c1.94,4.326 2.91,11.25 2.91,20.772c-0,6.185 -0.312,11.271 -0.936,15.259c-0.624,3.987 -2.021,7.256 -4.191,9.806c-2.17,2.55 -4.666,3.825 -7.487,3.825c-3.391,-0 -6.253,-1.872 -8.586,-5.615l0,9.074c0,0.922 0.516,1.559 1.546,1.912c1.004,0.353 1.506,1.017 1.506,1.994l0,1.465c0,0.569 -0.068,0.915 -0.203,1.037c-0.136,0.122 -0.502,0.183 -1.099,0.183l-15.666,0c-1.085,0 -1.627,-0.271 -1.627,-0.813l-0,-1.506c-0,-1.004 0.461,-1.777 1.383,-2.319c0.461,-0.272 0.692,-0.706 0.692,-1.302l-0,-52.653c-0,-1.004 -0.353,-1.764 -1.058,-2.279c-0.488,-0.353 -0.78,-0.624 -0.875,-0.814c-0.095,-0.19 -0.142,-0.583 -0.142,-1.18l-0,-1.261c-0,-0.733 0.074,-1.167 0.223,-1.302c0.15,-0.136 0.55,-0.204 1.201,-0.204l12.41,0c0.787,0 1.268,0.095 1.445,0.285c0.176,0.19 0.264,0.678 0.264,1.465l0,2.238Zm6.267,7.69c-0,-1.682 -0.34,-2.936 -1.018,-3.764c-0.678,-0.827 -1.424,-1.241 -2.238,-1.241c-0.596,0 -1.248,0.353 -1.953,1.058c-0.705,0.706 -1.058,1.506 -1.058,2.401l0,34.18c0,0.732 0.38,1.505 1.14,2.319c0.759,0.814 1.641,1.221 2.644,1.221c1.655,-0 2.483,-1.289 2.483,-3.866l-0,-32.308Z" style="fill:#231f20;fill-rule:nonzero;"/><path d="M242.836,419.766l2.238,11.271c0.054,0.353 0.081,0.665 0.081,0.936c0,0.76 -0.732,1.139 -2.197,1.139c-0.976,0 -1.689,-0.122 -2.136,-0.366c-0.448,-0.244 -0.956,-0.895 -1.526,-1.953c-0.651,-1.248 -1.641,-2.726 -2.97,-4.435c-1.33,-1.709 -2.523,-2.564 -3.581,-2.564c-0.407,0 -0.766,0.19 -1.078,0.57c-0.312,0.379 -0.468,0.827 -0.468,1.342c-0,1.382 1.98,5.298 5.94,11.749c3.418,5.611 5.738,10.016 6.958,13.214c1.221,3.198 1.831,6.803 1.831,10.815c0,4.256 -0.922,7.569 -2.766,9.941c-1.845,2.372 -4.015,3.558 -6.511,3.558c-1.573,-0 -3.228,-0.57 -4.964,-1.709c-0.949,-0.624 -1.587,-0.936 -1.912,-0.936c-0.38,-0 -0.597,0.312 -0.652,0.936c-0.108,0.732 -0.271,1.2 -0.488,1.403c-0.217,0.204 -0.922,0.306 -2.116,0.306c-0.922,-0 -1.519,-0.136 -1.79,-0.407c-0.271,-0.272 -0.461,-0.746 -0.57,-1.425l-2.034,-11.352c-0.082,-0.543 -0.122,-0.882 -0.122,-1.017c-0,-0.76 0.908,-1.14 2.726,-1.14c0.949,0 1.607,0.122 1.973,0.367c0.367,0.244 0.835,0.949 1.404,2.115c2.116,4.422 4.123,6.633 6.022,6.633c1.221,-0 1.831,-0.732 1.831,-2.195c0,-1.302 -0.454,-2.914 -1.363,-4.839c-0.908,-1.924 -2.678,-5.082 -5.31,-9.473c-2.767,-4.662 -4.767,-8.565 -6.002,-11.709c-1.234,-3.144 -1.851,-6.302 -1.851,-9.473c0,-4.31 0.922,-7.522 2.767,-9.636c1.845,-2.114 4.083,-3.171 6.714,-3.171c1.383,-0 2.957,0.474 4.72,1.424c0.895,0.488 1.505,0.732 1.831,0.732c0.434,0 0.692,-0.285 0.773,-0.854c0.109,-0.597 0.326,-0.963 0.651,-1.099c0.326,-0.136 1.017,-0.203 2.075,-0.203c0.678,-0 1.119,0.074 1.323,0.223c0.203,0.15 0.386,0.577 0.549,1.282Z" style="fill:#231f20;fill-rule:nonzero;"/><rect x="0" y="0" width="471.386" height="537.864" style="fill:none;"/></svg>